<svg xmlns="http://www.w3.org/2000/svg" height="24" viewBox="0 -960 960 960" width="24"><path d="M212.309-140.001q-29.923 0-51.115-21.193-21.193-21.192-21.193-51.115v-535.382q0-29.923 21.193-51.115 21.192-21.193 51.115-21.193h178q3.769-33.307 29.076-56.653 25.308-23.347 60.615-23.347 35.692 0 60.999 23.347 25.308 23.346 28.692 56.653h178q29.923 0 51.115 21.193 21.193 21.192 21.193 51.115v252.998Q805.23-501 790.422-505.384q-14.807-4.385-30.422-7v-235.307q0-4.616-3.846-8.463-3.847-3.846-8.463-3.846H212.309q-4.616 0-8.463 3.846-3.846 3.847-3.846 8.463v535.382q0 4.616 3.846 8.463 3.847 3.846 8.463 3.846h234.307q2.23 16.615 6.615 31.422 4.384 14.808 10.692 28.577H212.309ZM200-240v40V-760-512.384v-3V-240Zm90.001-54.616h160.692q2.615-15.615 7.769-30.423 5.154-14.807 11.231-29.576H290.001v59.999Zm0-155.385h253.616q25.846-21.922 55.152-36.73 29.307-14.807 62.768-21.038v-2.23H290.001v59.998Zm0-155.384h379.998v-59.999H290.001v59.999ZM480-786.154q13 0 21.5-8.5t8.5-21.5q0-13-8.5-21.5t-21.5-8.5q-13 0-21.5 8.5t-8.5 21.5q0 13 8.5 21.5t21.5 8.5Zm240 728.46q-74.922 0-127.461-52.538-52.538-52.538-52.538-127.46 0-74.923 52.538-127.461Q645.078-417.691 720-417.691t127.461 52.538q52.538 52.538 52.538 127.461 0 74.922-52.538 127.46Q794.922-57.694 720-57.694ZM702.308-120h35.384v-100h100v-35.384h-100v-100h-35.384v100h-100V-220h100v100Z"/></svg>